<svg xmlns="http://www.w3.org/2000/svg" width="1808" height="539" viewBox="0 0 1808 539">
  <defs>
    <style>
      .cls-1 {
        fill: #003cff;
        fill-rule: evenodd;
      }
    </style>
  </defs>
  <path id="склейка_1" data-name="склейка 1" class="cls-1" d="M242.126,497.287s-5-207.156-4-229.172,4.5-90.068,50.013-120.091,126.033-46.535,163.042-15.011,52.514,43.032,63.017,71.053,13.5,58.044,14,91.069,2,61.546-7,71.054-113.529,18.013-123.031,5-14-109.582-28.008-107.08-11,244.684,3,230.173,11.5-94.571,23.006-99.075,113.529-8.506,122.032-1,25.006,140.606,0,181.136-36.01,80.061-131.034,78.059S243.009,580.906,242.126,497.287Zm306.079,89.068s1.5-274.207-3-324.245-19-115.087-12-124.093S626.726,111,630.227,157.031s0,136.6,10,128.1,60.016-151.614,85.022-156.117,61.016,0,77.02,14.01,42.511,37.529,34.009,50.038S690.242,364.187,691.243,387.2,820.776,541.321,820.276,561.336s-64.017,86.065-86.022,78.058-73.519-153.615-78.021-140.105,4,131.1-12,145.109-72.018,12.009-84.021,6S545.379,640.772,548.205,586.355Zm162.042-198.15c1.352,11.933,59.016,83.563,74.02,82.062S900.8,345.673,910.3,365.188s-19,246.185-3,260.2,122.031,20.515,129.031-4-9.5-443.835-24-462.349-74.023-20.515-91.028-9.006S708.683,374.39,710.247,388.205ZM1063.34,154.029c-10.02,14.359-1,460.847,12,471.355s248.07,9.007,255.07-6,4-77.558-9-90.067-175.05,1-175.05,1-6.5-36.027-7-54.04,0-39.03,0-39.03,69.02-1,72.02-9.007,3.5-54.541-2-60.045-81.02-3-81.02-3-10.01-93.07-2-99.075,194.55-8.006,198.05-18.013,8.5-96.573-8.01-101.077-83.52,5.5-114.02,5S1073.01,140.167,1063.34,154.029Zm292.07,56.042c5.56-7.968,102.53-13.51,108.03-9.007s11.01,59.545,3,68.051-104.02,11.009-111.03,3S1350.51,217.107,1355.41,210.071Zm-87.02,79.059c-4.89,8.57-2,194.647,13.01,204.154s56.51,20.015,73.01,14.011,89.03-76.057,89.03-76.057-4.5,52.039,9,63.047,70.52,9.007,79.02-3,8.5-87.566,7-113.085-10.5-89.068-19-96.073-68.52-2-80.02,12.009-25.51,64.049-41.01,81.061-39.01,33.025-39.01,33.025,2-116.588-4.01-123.093S1273.73,279.781,1268.39,289.13Zm302.08,341.258c-9.7-15.9-23.51-451.34-10-465.351s67.52-10.508,72.02-1,3,154.116,13,148.112,54.01-151.614,63.02-158.119,97.52,5.5,97.02,19.014-29.01,95.572-39.01,112.084-60.01,82.563-59.01,106.08,44.51,59.545,61.01,87.066,57.02,78.559,54.02,95.072-75.52,72.054-86.03,64.048-36.01-56.543-42.01-76.057-37.01-75.057-37.01-75.057,13.51,140.106,1,150.113S1579.02,644.411,1570.47,630.388Zm341.09-201.152-44.01-17.013s-30.51,33.025-37.01,49.037-18.51,25.019-26.01,24.018-80.52-76.557-79.02-92.069,114.53-231.174,132.03-236.178,124.54-18.514,138.04,1,59.02,452.341,49.01,461.347-133.03,24.519-135.03-3,5-41.531,5-72.054S1915.61,436.455,1911.56,429.236Zm-41.01-93.07s15.5-82.562,27.01-87.066,32-4,37,5,5.51,104.079-5,106.08S1876,345.49,1870.55,336.166Z" transform="translate(-238 -116)"/>
</svg>
